<svg width="260" height="19" viewBox="0 0 260 19" fill="none" xmlns="http://www.w3.org/2000/svg">
<path d="M137.719 9.875C138.684 9.875 139.5 10.6914 139.5 11.6562V16.4062C139.5 17.4082 138.684 18.1875 137.719 18.1875H132.969C131.967 18.1875 131.188 17.4082 131.188 16.4062V7.5C131.188 4.23438 133.822 1.5625 137.125 1.5625H137.422C137.904 1.5625 138.312 1.9707 138.312 2.45312V4.23438C138.312 4.75391 137.904 5.125 137.422 5.125H137.125C135.789 5.125 134.75 6.20117 134.75 7.5V9.875H137.719ZM127.031 9.875C127.996 9.875 128.812 10.6914 128.812 11.6562V16.4062C128.812 17.4082 127.996 18.1875 127.031 18.1875H122.281C121.279 18.1875 120.5 17.4082 120.5 16.4062V7.5C120.5 4.23438 123.135 1.5625 126.438 1.5625H126.734C127.217 1.5625 127.625 1.9707 127.625 2.45312V4.23438C127.625 4.75391 127.217 5.125 126.734 5.125H126.438C125.102 5.125 124.062 6.20117 124.062 7.5V9.875H127.031Z" fill="#49A078"/>
</svg>
