<svg width="20" height="17" viewBox="0 0 20 17" fill="none" xmlns="http://www.w3.org/2000/svg">
<path d="M17.9648 4.03131C17.9648 4.22701 17.9648 4.38356 17.9648 4.57926C17.9648 10.0196 13.8552 16.2427 6.30137 16.2427C3.95303 16.2427 1.80039 15.5773 0 14.4031C0.313112 14.4423 0.626223 14.4814 0.978474 14.4814C2.89628 14.4814 4.65753 13.816 6.06654 12.7202C4.26614 12.681 2.73973 11.5068 2.23092 9.86301C2.50489 9.90215 2.73973 9.94129 3.0137 9.94129C3.36595 9.94129 3.75734 9.86301 4.07045 9.78474C2.19178 9.39335 0.782779 7.74951 0.782779 5.75342V5.71429C1.33072 6.0274 1.99609 6.18395 2.66145 6.22309C1.52642 5.47945 0.821918 4.22701 0.821918 2.818C0.821918 2.03523 1.01761 1.33072 1.36986 0.74364C3.40509 3.20939 6.45793 4.85323 9.86301 5.04892C9.78474 4.73581 9.7456 4.4227 9.7456 4.10959C9.7456 1.83953 11.5851 0 13.8552 0C15.0294 0 16.0861 0.469667 16.8689 1.29159C17.7691 1.09589 18.6693 0.74364 19.4521 0.273973C19.1389 1.25245 18.5127 2.03523 17.6517 2.54403C18.4736 2.46575 19.2955 2.23092 20 1.91781C19.4521 2.73973 18.7476 3.44423 17.9648 4.03131Z" fill="white"/>
</svg>
